<svg width="217" height="245" viewBox="0 0 217 245" fill="none" xmlns="http://www.w3.org/2000/svg">
<g clip-path="url(#clip0_3501_2)">
<g filter="url(#filter0_bdd_3501_2)">
<path d="M0 59.9281L111.146 0L217 59.9281V181.547L111.146 245L0 181.547V59.9281Z" fill="white" fill-opacity="0.1" shape-rendering="crispEdges"/>
<path d="M0 59.9281L111.146 0L217 59.9281V181.547L111.146 245L0 181.547V59.9281Z" stroke="url(#paint0_linear_3501_2)" stroke-width="6.97672" shape-rendering="crispEdges"/>
</g>
<path d="M53.7348 141V108.6H61.7748C63.7215 108.6 65.2682 108.96 66.4148 109.68C67.5882 110.373 68.4415 111.387 68.9748 112.72C69.5082 114.053 69.7748 115.667 69.7748 117.56C69.7748 119.267 69.4682 120.747 68.8548 122C68.2682 123.253 67.3882 124.227 66.2148 124.92C65.0415 125.587 63.5748 125.92 61.8148 125.92H58.2548V141H53.7348ZM58.2548 122.68H60.3348C61.6415 122.68 62.6682 122.533 63.4148 122.24C64.1615 121.947 64.6948 121.44 65.0148 120.72C65.3348 119.973 65.4948 118.933 65.4948 117.6C65.4948 116.053 65.3748 114.867 65.1348 114.04C64.9215 113.213 64.4548 112.64 63.7348 112.32C63.0148 112 61.8948 111.84 60.3748 111.84H58.2548V122.68ZM72.7136 141V108.6H76.9936V120.28C77.7669 119.533 78.6336 118.893 79.5936 118.36C80.5536 117.827 81.6203 117.56 82.7936 117.56C83.7003 117.56 84.3936 117.8 84.8736 118.28C85.3803 118.76 85.7269 119.36 85.9136 120.08C86.1269 120.8 86.2336 121.533 86.2336 122.28V141H81.9536V123.52C81.9536 122.693 81.8336 122.053 81.5936 121.6C81.3536 121.147 80.8603 120.92 80.1136 120.92C79.6069 120.92 79.0736 121.067 78.5136 121.36C77.9803 121.653 77.4736 122.013 76.9936 122.44V141H72.7136ZM94.5661 141.32C93.6594 141.32 92.8594 141.067 92.1661 140.56C91.4728 140.027 90.9261 139.36 90.5261 138.56C90.1261 137.733 89.9261 136.867 89.9261 135.96C89.9261 134.52 90.1661 133.307 90.6461 132.32C91.1261 131.333 91.7794 130.507 92.6061 129.84C93.4594 129.147 94.4328 128.547 95.5261 128.04C96.6461 127.533 97.8194 127.04 99.0461 126.56V124.92C99.0461 123.987 98.9928 123.213 98.8861 122.6C98.7794 121.987 98.5528 121.533 98.2061 121.24C97.8861 120.92 97.3928 120.76 96.7261 120.76C96.1394 120.76 95.6594 120.893 95.2861 121.16C94.9394 121.427 94.6861 121.813 94.5261 122.32C94.3661 122.8 94.2861 123.373 94.2861 124.04V125.2L90.0461 125.04C90.0994 122.48 90.6861 120.6 91.8061 119.4C92.9261 118.173 94.6594 117.56 97.0061 117.56C99.2994 117.56 100.926 118.187 101.886 119.44C102.846 120.693 103.326 122.507 103.326 124.88V135.44C103.326 136.16 103.339 136.853 103.366 137.52C103.419 138.187 103.473 138.813 103.526 139.4C103.606 139.96 103.673 140.493 103.726 141H99.8061C99.7261 140.573 99.6194 140.04 99.4861 139.4C99.3794 138.733 99.2994 138.133 99.2461 137.6C98.9794 138.507 98.4594 139.36 97.6861 140.16C96.9394 140.933 95.8994 141.32 94.5661 141.32ZM96.2461 137.64C96.6728 137.64 97.0728 137.52 97.4461 137.28C97.8194 137.04 98.1528 136.773 98.4461 136.48C98.7394 136.16 98.9394 135.907 99.0461 135.72V129.16C98.3794 129.533 97.7528 129.907 97.1661 130.28C96.5794 130.653 96.0594 131.053 95.6061 131.48C95.1794 131.88 94.8328 132.347 94.5661 132.88C94.3261 133.387 94.2061 133.973 94.2061 134.64C94.2061 135.573 94.3794 136.307 94.7261 136.84C95.0728 137.373 95.5794 137.64 96.2461 137.64ZM112.797 141.32C110.904 141.32 109.384 140.733 108.237 139.56C107.091 138.36 106.437 136.787 106.277 134.84L109.837 133.76C110.051 135.227 110.411 136.333 110.917 137.08C111.424 137.8 112.171 138.16 113.157 138.16C113.931 138.16 114.517 137.947 114.917 137.52C115.317 137.067 115.517 136.467 115.517 135.72C115.517 135.053 115.371 134.453 115.077 133.92C114.784 133.387 114.304 132.84 113.637 132.28L109.677 128.88C108.877 128.187 108.197 127.413 107.637 126.56C107.104 125.707 106.837 124.6 106.837 123.24C106.837 122.013 107.077 120.987 107.557 120.16C108.064 119.307 108.757 118.667 109.637 118.24C110.544 117.787 111.597 117.56 112.797 117.56C114.637 117.56 116.037 118.16 116.997 119.36C117.984 120.533 118.544 121.96 118.677 123.64L115.797 124.72C115.691 123.92 115.531 123.227 115.317 122.64C115.104 122.027 114.811 121.56 114.437 121.24C114.064 120.893 113.571 120.72 112.957 120.72C112.264 120.72 111.704 120.96 111.277 121.44C110.877 121.893 110.677 122.44 110.677 123.08C110.677 123.48 110.757 123.88 110.917 124.28C111.104 124.653 111.411 125.027 111.837 125.4L115.917 129.16C116.477 129.667 116.997 130.213 117.477 130.8C117.984 131.387 118.397 132.053 118.717 132.8C119.037 133.547 119.197 134.413 119.197 135.4C119.197 136.707 118.931 137.8 118.397 138.68C117.864 139.56 117.117 140.227 116.157 140.68C115.197 141.107 114.077 141.32 112.797 141.32ZM128.798 141.32C126.985 141.32 125.585 140.973 124.598 140.28C123.612 139.56 122.918 138.52 122.518 137.16C122.145 135.773 121.958 134.08 121.958 132.08V126.8C121.958 124.747 122.158 123.04 122.558 121.68C122.958 120.32 123.652 119.293 124.638 118.6C125.652 117.907 127.038 117.56 128.798 117.56C130.745 117.56 132.172 117.96 133.078 118.76C134.012 119.56 134.625 120.72 134.918 122.24C135.212 123.733 135.358 125.533 135.358 127.64V129.52H126.238V134.16C126.238 135.093 126.318 135.853 126.478 136.44C126.665 137.027 126.945 137.467 127.318 137.76C127.718 138.027 128.225 138.16 128.838 138.16C129.478 138.16 129.958 138.013 130.278 137.72C130.625 137.4 130.852 136.96 130.958 136.4C131.092 135.813 131.158 135.133 131.158 134.36V132.96H135.318V133.84C135.318 136.16 134.825 137.987 133.838 139.32C132.852 140.653 131.172 141.32 128.798 141.32ZM126.238 127.2H131.158V125.12C131.158 124.16 131.105 123.36 130.998 122.72C130.892 122.053 130.665 121.56 130.318 121.24C129.998 120.893 129.478 120.72 128.758 120.72C128.065 120.72 127.532 120.88 127.158 121.2C126.812 121.52 126.572 122.067 126.438 122.84C126.305 123.587 126.238 124.627 126.238 125.96V127.2ZM139.034 130.56V127.32H147.954V130.56H139.034ZM156.766 141V114.2C156.739 114.227 156.432 114.307 155.846 114.44C155.286 114.573 154.646 114.707 153.926 114.84C153.206 114.973 152.566 115.093 152.006 115.2C151.446 115.307 151.152 115.36 151.126 115.36V112.12C151.579 112.013 152.099 111.867 152.686 111.68C153.299 111.493 153.912 111.267 154.526 111C155.166 110.733 155.766 110.4 156.326 110C156.912 109.6 157.406 109.133 157.806 108.6H161.046V141H156.766Z" fill="white"/>
</g>
<defs>
<filter id="filter0_bdd_3501_2" x="-21.4883" y="-21.9854" width="259.977" height="289.027" filterUnits="userSpaceOnUse" color-interpolation-filters="sRGB">
<feFlood flood-opacity="0" result="BackgroundImageFix"/>
<feGaussianBlur in="BackgroundImageFix" stdDeviation="9"/>
<feComposite in2="SourceAlpha" operator="in" result="effect1_backgroundBlur_3501_2"/>
<feColorMatrix in="SourceAlpha" type="matrix" values="0 0 0 0 0 0 0 0 0 0 0 0 0 0 0 0 0 0 127 0" result="hardAlpha"/>
<feOffset dx="-2"/>
<feGaussianBlur stdDeviation="2.5"/>
<feComposite in2="hardAlpha" operator="out"/>
<feColorMatrix type="matrix" values="0 0 0 0 0.996078 0 0 0 0 0.0823529 0 0 0 0 0.235294 0 0 0 0.52 0"/>
<feBlend mode="normal" in2="effect1_backgroundBlur_3501_2" result="effect2_dropShadow_3501_2"/>
<feColorMatrix in="SourceAlpha" type="matrix" values="0 0 0 0 0 0 0 0 0 0 0 0 0 0 0 0 0 0 127 0" result="hardAlpha"/>
<feOffset dx="2"/>
<feGaussianBlur stdDeviation="2.5"/>
<feComposite in2="hardAlpha" operator="out"/>
<feColorMatrix type="matrix" values="0 0 0 0 0.996078 0 0 0 0 0.0823529 0 0 0 0 0.235294 0 0 0 0.52 0"/>
<feBlend mode="normal" in2="effect2_dropShadow_3501_2" result="effect3_dropShadow_3501_2"/>
<feBlend mode="normal" in="SourceGraphic" in2="effect3_dropShadow_3501_2" result="shape"/>
</filter>
<linearGradient id="paint0_linear_3501_2" x1="53.4882" y1="32.7706" x2="207.404" y2="198.456" gradientUnits="userSpaceOnUse">
<stop stop-color="#FF002A"/>
<stop offset="1" stop-color="#750013"/>
</linearGradient>
<clipPath id="clip0_3501_2">
<rect width="217" height="245" fill="white"/>
</clipPath>
</defs>
</svg>
