<svg width="217" height="245" viewBox="0 0 217 245" fill="none" xmlns="http://www.w3.org/2000/svg">
<g clip-path="url(#clip0_3501_6)">
<g filter="url(#filter0_bdd_3501_6)">
<path d="M105 0L0 59.078V185.922L105 245L217 185.922V59.078L105 0Z" fill="white" fill-opacity="0.1" shape-rendering="crispEdges"/>
<path d="M105 0L0 59.078V185.922L105 245L217 185.922V59.078L105 0Z" stroke="url(#paint0_linear_3501_6)" stroke-width="6" shape-rendering="crispEdges"/>
</g>
<path d="M51.6138 141V108.6H59.6537C61.6004 108.6 63.1471 108.96 64.2938 109.68C65.4671 110.373 66.3204 111.387 66.8538 112.72C67.3871 114.053 67.6538 115.667 67.6538 117.56C67.6538 119.267 67.3471 120.747 66.7338 122C66.1471 123.253 65.2671 124.227 64.0938 124.92C62.9204 125.587 61.4538 125.92 59.6938 125.92H56.1338V141H51.6138ZM56.1338 122.68H58.2138C59.5204 122.68 60.5471 122.533 61.2938 122.24C62.0404 121.947 62.5738 121.44 62.8938 120.72C63.2138 119.973 63.3738 118.933 63.3738 117.6C63.3738 116.053 63.2538 114.867 63.0138 114.04C62.8004 113.213 62.3338 112.64 61.6138 112.32C60.8938 112 59.7738 111.84 58.2538 111.84H56.1338V122.68ZM70.5925 141V108.6H74.8725V120.28C75.6458 119.533 76.5125 118.893 77.4725 118.36C78.4325 117.827 79.4992 117.56 80.6725 117.56C81.5792 117.56 82.2725 117.8 82.7525 118.28C83.2592 118.76 83.6058 119.36 83.7925 120.08C84.0058 120.8 84.1125 121.533 84.1125 122.28V141H79.8325V123.52C79.8325 122.693 79.7125 122.053 79.4725 121.6C79.2325 121.147 78.7392 120.92 77.9925 120.92C77.4858 120.92 76.9525 121.067 76.3925 121.36C75.8592 121.653 75.3525 122.013 74.8725 122.44V141H70.5925ZM92.445 141.32C91.5383 141.32 90.7383 141.067 90.045 140.56C89.3517 140.027 88.805 139.36 88.405 138.56C88.005 137.733 87.805 136.867 87.805 135.96C87.805 134.52 88.045 133.307 88.525 132.32C89.005 131.333 89.6583 130.507 90.485 129.84C91.3383 129.147 92.3117 128.547 93.405 128.04C94.525 127.533 95.6983 127.04 96.925 126.56V124.92C96.925 123.987 96.8717 123.213 96.765 122.6C96.6583 121.987 96.4317 121.533 96.085 121.24C95.765 120.92 95.2717 120.76 94.605 120.76C94.0183 120.76 93.5383 120.893 93.165 121.16C92.8183 121.427 92.565 121.813 92.405 122.32C92.245 122.8 92.165 123.373 92.165 124.04V125.2L87.925 125.04C87.9783 122.48 88.565 120.6 89.685 119.4C90.805 118.173 92.5383 117.56 94.885 117.56C97.1783 117.56 98.805 118.187 99.765 119.44C100.725 120.693 101.205 122.507 101.205 124.88V135.44C101.205 136.16 101.218 136.853 101.245 137.52C101.298 138.187 101.352 138.813 101.405 139.4C101.485 139.96 101.552 140.493 101.605 141H97.685C97.605 140.573 97.4983 140.04 97.365 139.4C97.2583 138.733 97.1783 138.133 97.125 137.6C96.8583 138.507 96.3383 139.36 95.565 140.16C94.8183 140.933 93.7783 141.32 92.445 141.32ZM94.125 137.64C94.5517 137.64 94.9517 137.52 95.325 137.28C95.6983 137.04 96.0317 136.773 96.325 136.48C96.6183 136.16 96.8183 135.907 96.925 135.72V129.16C96.2583 129.533 95.6317 129.907 95.045 130.28C94.4583 130.653 93.9383 131.053 93.485 131.48C93.0583 131.88 92.7117 132.347 92.445 132.88C92.205 133.387 92.085 133.973 92.085 134.64C92.085 135.573 92.2583 136.307 92.605 136.84C92.9517 137.373 93.4583 137.64 94.125 137.64ZM110.676 141.32C108.783 141.32 107.263 140.733 106.116 139.56C104.97 138.36 104.316 136.787 104.156 134.84L107.716 133.76C107.93 135.227 108.29 136.333 108.796 137.08C109.303 137.8 110.05 138.16 111.036 138.16C111.81 138.16 112.396 137.947 112.796 137.52C113.196 137.067 113.396 136.467 113.396 135.72C113.396 135.053 113.25 134.453 112.956 133.92C112.663 133.387 112.183 132.84 111.516 132.28L107.556 128.88C106.756 128.187 106.076 127.413 105.516 126.56C104.983 125.707 104.716 124.6 104.716 123.24C104.716 122.013 104.956 120.987 105.436 120.16C105.943 119.307 106.636 118.667 107.516 118.24C108.423 117.787 109.476 117.56 110.676 117.56C112.516 117.56 113.916 118.16 114.876 119.36C115.863 120.533 116.423 121.96 116.556 123.64L113.676 124.72C113.57 123.92 113.41 123.227 113.196 122.64C112.983 122.027 112.69 121.56 112.316 121.24C111.943 120.893 111.45 120.72 110.836 120.72C110.143 120.72 109.583 120.96 109.156 121.44C108.756 121.893 108.556 122.44 108.556 123.08C108.556 123.48 108.636 123.88 108.796 124.28C108.983 124.653 109.29 125.027 109.716 125.4L113.796 129.16C114.356 129.667 114.876 130.213 115.356 130.8C115.863 131.387 116.276 132.053 116.596 132.8C116.916 133.547 117.076 134.413 117.076 135.4C117.076 136.707 116.81 137.8 116.276 138.68C115.743 139.56 114.996 140.227 114.036 140.68C113.076 141.107 111.956 141.32 110.676 141.32ZM126.677 141.32C124.864 141.32 123.464 140.973 122.477 140.28C121.491 139.56 120.797 138.52 120.397 137.16C120.024 135.773 119.837 134.08 119.837 132.08V126.8C119.837 124.747 120.037 123.04 120.437 121.68C120.837 120.32 121.531 119.293 122.517 118.6C123.531 117.907 124.917 117.56 126.677 117.56C128.624 117.56 130.051 117.96 130.957 118.76C131.891 119.56 132.504 120.72 132.797 122.24C133.091 123.733 133.237 125.533 133.237 127.64V129.52H124.117V134.16C124.117 135.093 124.197 135.853 124.357 136.44C124.544 137.027 124.824 137.467 125.197 137.76C125.597 138.027 126.104 138.16 126.717 138.16C127.357 138.16 127.837 138.013 128.157 137.72C128.504 137.4 128.731 136.96 128.837 136.4C128.971 135.813 129.037 135.133 129.037 134.36V132.96H133.197V133.84C133.197 136.16 132.704 137.987 131.717 139.32C130.731 140.653 129.051 141.32 126.677 141.32ZM124.117 127.2H129.037V125.12C129.037 124.16 128.984 123.36 128.877 122.72C128.771 122.053 128.544 121.56 128.197 121.24C127.877 120.893 127.357 120.72 126.637 120.72C125.944 120.72 125.411 120.88 125.037 121.2C124.691 121.52 124.451 122.067 124.317 122.84C124.184 123.587 124.117 124.627 124.117 125.96V127.2ZM136.913 130.56V127.32H145.833V130.56H136.913ZM149.445 141V137.96L157.685 125.12C158.298 124.16 158.858 123.267 159.365 122.44C159.898 121.613 160.325 120.747 160.645 119.84C160.991 118.907 161.165 117.84 161.165 116.64C161.165 115.147 160.925 113.973 160.445 113.12C159.965 112.267 159.125 111.84 157.925 111.84C156.911 111.84 156.125 112.12 155.565 112.68C155.005 113.24 154.618 113.973 154.405 114.88C154.191 115.787 154.085 116.76 154.085 117.8V118.88H149.805V117.76C149.805 115.813 150.058 114.147 150.565 112.76C151.098 111.347 151.938 110.253 153.085 109.48C154.258 108.707 155.805 108.32 157.725 108.32C160.338 108.32 162.285 109.067 163.565 110.56C164.845 112.027 165.485 114.067 165.485 116.68C165.485 118.067 165.311 119.28 164.965 120.32C164.645 121.36 164.218 122.333 163.685 123.24C163.151 124.147 162.565 125.08 161.925 126.04L154.485 137.4H164.725V141H149.445Z" fill="white"/>
</g>
<defs>
<filter id="filter0_bdd_3501_6" x="-21" y="-21.4163" width="259" height="287.833" filterUnits="userSpaceOnUse" color-interpolation-filters="sRGB">
<feFlood flood-opacity="0" result="BackgroundImageFix"/>
<feGaussianBlur in="BackgroundImageFix" stdDeviation="9"/>
<feComposite in2="SourceAlpha" operator="in" result="effect1_backgroundBlur_3501_6"/>
<feColorMatrix in="SourceAlpha" type="matrix" values="0 0 0 0 0 0 0 0 0 0 0 0 0 0 0 0 0 0 127 0" result="hardAlpha"/>
<feOffset dx="-2"/>
<feGaussianBlur stdDeviation="2.5"/>
<feComposite in2="hardAlpha" operator="out"/>
<feColorMatrix type="matrix" values="0 0 0 0 0.996078 0 0 0 0 0.0823529 0 0 0 0 0.235294 0 0 0 0.52 0"/>
<feBlend mode="normal" in2="effect1_backgroundBlur_3501_6" result="effect2_dropShadow_3501_6"/>
<feColorMatrix in="SourceAlpha" type="matrix" values="0 0 0 0 0 0 0 0 0 0 0 0 0 0 0 0 0 0 127 0" result="hardAlpha"/>
<feOffset dx="2"/>
<feGaussianBlur stdDeviation="2.5"/>
<feComposite in2="hardAlpha" operator="out"/>
<feColorMatrix type="matrix" values="0 0 0 0 0.996078 0 0 0 0 0.0823529 0 0 0 0 0.235294 0 0 0 0.52 0"/>
<feBlend mode="normal" in2="effect2_dropShadow_3501_6" result="effect3_dropShadow_3501_6"/>
<feBlend mode="normal" in="SourceGraphic" in2="effect3_dropShadow_3501_6" result="shape"/>
</filter>
<linearGradient id="paint0_linear_3501_6" x1="53.4882" y1="32.7706" x2="207.404" y2="198.456" gradientUnits="userSpaceOnUse">
<stop stop-color="#FF002A"/>
<stop offset="1" stop-color="#750013"/>
</linearGradient>
<clipPath id="clip0_3501_6">
<rect width="217" height="245" fill="white"/>
</clipPath>
</defs>
</svg>
