<svg width="217" height="245" viewBox="0 0 217 245" fill="none" xmlns="http://www.w3.org/2000/svg">
<g clip-path="url(#clip0_3501_10)">
<g filter="url(#filter0_bdd_3501_10)">
<path d="M112.057 0L0 66.9784V185.072L112.057 245L217 185.072V66.9784L112.057 0Z" fill="white" fill-opacity="0.1" shape-rendering="crispEdges"/>
<path d="M112.057 0L0 66.9784V185.072L112.057 245L217 185.072V66.9784L112.057 0Z" stroke="url(#paint0_linear_3501_10)" stroke-width="6" shape-rendering="crispEdges"/>
</g>
<path d="M51.6333 141V108.6H59.6733C61.6199 108.6 63.1666 108.96 64.3133 109.68C65.4866 110.373 66.3399 111.387 66.8733 112.72C67.4066 114.053 67.6733 115.667 67.6733 117.56C67.6733 119.267 67.3666 120.747 66.7533 122C66.1666 123.253 65.2866 124.227 64.1133 124.92C62.9399 125.587 61.4733 125.92 59.7133 125.92H56.1533V141H51.6333ZM56.1533 122.68H58.2333C59.5399 122.68 60.5666 122.533 61.3133 122.24C62.0599 121.947 62.5933 121.44 62.9133 120.72C63.2333 119.973 63.3933 118.933 63.3933 117.6C63.3933 116.053 63.2733 114.867 63.0333 114.04C62.8199 113.213 62.3533 112.64 61.6333 112.32C60.9133 112 59.7933 111.84 58.2733 111.84H56.1533V122.68ZM70.612 141V108.6H74.892V120.28C75.6654 119.533 76.532 118.893 77.492 118.36C78.452 117.827 79.5187 117.56 80.692 117.56C81.5987 117.56 82.292 117.8 82.772 118.28C83.2787 118.76 83.6254 119.36 83.812 120.08C84.0254 120.8 84.132 121.533 84.132 122.28V141H79.852V123.52C79.852 122.693 79.732 122.053 79.492 121.6C79.252 121.147 78.7587 120.92 78.012 120.92C77.5054 120.92 76.972 121.067 76.412 121.36C75.8787 121.653 75.372 122.013 74.892 122.44V141H70.612ZM92.4645 141.32C91.5579 141.32 90.7579 141.067 90.0645 140.56C89.3712 140.027 88.8245 139.36 88.4245 138.56C88.0245 137.733 87.8245 136.867 87.8245 135.96C87.8245 134.52 88.0645 133.307 88.5445 132.32C89.0245 131.333 89.6779 130.507 90.5045 129.84C91.3579 129.147 92.3312 128.547 93.4245 128.04C94.5445 127.533 95.7179 127.04 96.9445 126.56V124.92C96.9445 123.987 96.8912 123.213 96.7845 122.6C96.6779 121.987 96.4512 121.533 96.1045 121.24C95.7845 120.92 95.2912 120.76 94.6245 120.76C94.0379 120.76 93.5579 120.893 93.1845 121.16C92.8379 121.427 92.5845 121.813 92.4245 122.32C92.2645 122.8 92.1845 123.373 92.1845 124.04V125.2L87.9445 125.04C87.9979 122.48 88.5845 120.6 89.7045 119.4C90.8245 118.173 92.5579 117.56 94.9045 117.56C97.1979 117.56 98.8245 118.187 99.7845 119.44C100.745 120.693 101.225 122.507 101.225 124.88V135.44C101.225 136.16 101.238 136.853 101.265 137.52C101.318 138.187 101.371 138.813 101.425 139.4C101.505 139.96 101.571 140.493 101.625 141H97.7045C97.6245 140.573 97.5179 140.04 97.3845 139.4C97.2779 138.733 97.1979 138.133 97.1445 137.6C96.8779 138.507 96.3579 139.36 95.5845 140.16C94.8379 140.933 93.7979 141.32 92.4645 141.32ZM94.1445 137.64C94.5712 137.64 94.9712 137.52 95.3445 137.28C95.7179 137.04 96.0512 136.773 96.3445 136.48C96.6379 136.16 96.8379 135.907 96.9445 135.72V129.16C96.2779 129.533 95.6512 129.907 95.0645 130.28C94.4779 130.653 93.9579 131.053 93.5045 131.48C93.0779 131.88 92.7312 132.347 92.4645 132.88C92.2245 133.387 92.1045 133.973 92.1045 134.64C92.1045 135.573 92.2779 136.307 92.6245 136.84C92.9712 137.373 93.4779 137.64 94.1445 137.64ZM110.696 141.32C108.802 141.32 107.282 140.733 106.136 139.56C104.989 138.36 104.336 136.787 104.176 134.84L107.736 133.76C107.949 135.227 108.309 136.333 108.816 137.08C109.322 137.8 110.069 138.16 111.056 138.16C111.829 138.16 112.416 137.947 112.816 137.52C113.216 137.067 113.416 136.467 113.416 135.72C113.416 135.053 113.269 134.453 112.976 133.92C112.682 133.387 112.202 132.84 111.536 132.28L107.576 128.88C106.776 128.187 106.096 127.413 105.536 126.56C105.002 125.707 104.736 124.6 104.736 123.24C104.736 122.013 104.976 120.987 105.456 120.16C105.962 119.307 106.656 118.667 107.536 118.24C108.442 117.787 109.496 117.56 110.696 117.56C112.536 117.56 113.936 118.16 114.896 119.36C115.882 120.533 116.442 121.96 116.576 123.64L113.696 124.72C113.589 123.92 113.429 123.227 113.216 122.64C113.002 122.027 112.709 121.56 112.336 121.24C111.962 120.893 111.469 120.72 110.856 120.72C110.162 120.72 109.602 120.96 109.176 121.44C108.776 121.893 108.576 122.44 108.576 123.08C108.576 123.48 108.656 123.88 108.816 124.28C109.002 124.653 109.309 125.027 109.736 125.4L113.816 129.16C114.376 129.667 114.896 130.213 115.376 130.8C115.882 131.387 116.296 132.053 116.616 132.8C116.936 133.547 117.096 134.413 117.096 135.4C117.096 136.707 116.829 137.8 116.296 138.68C115.762 139.56 115.016 140.227 114.056 140.68C113.096 141.107 111.976 141.32 110.696 141.32ZM126.697 141.32C124.883 141.32 123.483 140.973 122.497 140.28C121.51 139.56 120.817 138.52 120.417 137.16C120.043 135.773 119.857 134.08 119.857 132.08V126.8C119.857 124.747 120.057 123.04 120.457 121.68C120.857 120.32 121.55 119.293 122.537 118.6C123.55 117.907 124.937 117.56 126.697 117.56C128.643 117.56 130.07 117.96 130.977 118.76C131.91 119.56 132.523 120.72 132.817 122.24C133.11 123.733 133.257 125.533 133.257 127.64V129.52H124.137V134.16C124.137 135.093 124.217 135.853 124.377 136.44C124.563 137.027 124.843 137.467 125.217 137.76C125.617 138.027 126.123 138.16 126.737 138.16C127.377 138.16 127.857 138.013 128.177 137.72C128.523 137.4 128.75 136.96 128.857 136.4C128.99 135.813 129.057 135.133 129.057 134.36V132.96H133.217V133.84C133.217 136.16 132.723 137.987 131.737 139.32C130.75 140.653 129.07 141.32 126.697 141.32ZM124.137 127.2H129.057V125.12C129.057 124.16 129.003 123.36 128.897 122.72C128.79 122.053 128.563 121.56 128.217 121.24C127.897 120.893 127.377 120.72 126.657 120.72C125.963 120.72 125.43 120.88 125.057 121.2C124.71 121.52 124.47 122.067 124.337 122.84C124.203 123.587 124.137 124.627 124.137 125.96V127.2ZM136.933 130.56V127.32H145.853V130.56H136.933ZM157.344 141.36C155.584 141.36 154.118 141.027 152.944 140.36C151.771 139.693 150.891 138.733 150.304 137.48C149.718 136.227 149.424 134.747 149.424 133.04V131.96H153.664C153.664 132.067 153.664 132.187 153.664 132.32C153.664 132.427 153.664 132.547 153.664 132.68C153.691 133.64 153.798 134.507 153.984 135.28C154.198 136.053 154.558 136.667 155.064 137.12C155.598 137.573 156.358 137.8 157.344 137.8C158.384 137.8 159.171 137.56 159.704 137.08C160.238 136.573 160.598 135.867 160.784 134.96C160.971 134.053 161.064 133.013 161.064 131.84C161.064 130.133 160.744 128.747 160.104 127.68C159.491 126.587 158.398 125.987 156.824 125.88C156.744 125.853 156.638 125.84 156.504 125.84C156.398 125.84 156.304 125.84 156.224 125.84V121.56C156.304 121.56 156.398 121.56 156.504 121.56C156.611 121.56 156.704 121.56 156.784 121.56C158.304 121.507 159.398 121.107 160.064 120.36C160.731 119.613 161.064 118.373 161.064 116.64C161.064 115.173 160.811 114 160.304 113.12C159.824 112.24 158.851 111.8 157.384 111.8C155.918 111.8 154.944 112.293 154.464 113.28C153.984 114.24 153.718 115.48 153.664 117C153.664 117.107 153.664 117.227 153.664 117.36C153.664 117.467 153.664 117.573 153.664 117.68H149.424V116.6C149.424 114.867 149.718 113.387 150.304 112.16C150.891 110.933 151.771 109.987 152.944 109.32C154.144 108.653 155.624 108.32 157.384 108.32C159.171 108.32 160.651 108.653 161.824 109.32C162.998 109.987 163.878 110.947 164.464 112.2C165.051 113.427 165.344 114.907 165.344 116.64C165.344 118.587 164.918 120.147 164.064 121.32C163.238 122.493 162.118 123.293 160.704 123.72C161.691 124.013 162.518 124.52 163.184 125.24C163.878 125.96 164.411 126.88 164.784 128C165.158 129.093 165.344 130.373 165.344 131.84C165.344 133.76 165.078 135.44 164.544 136.88C164.011 138.293 163.158 139.4 161.984 140.2C160.811 140.973 159.264 141.36 157.344 141.36Z" fill="white"/>
</g>
<defs>
<filter id="filter0_bdd_3501_10" x="-21" y="-21.5259" width="259" height="287.953" filterUnits="userSpaceOnUse" color-interpolation-filters="sRGB">
<feFlood flood-opacity="0" result="BackgroundImageFix"/>
<feGaussianBlur in="BackgroundImageFix" stdDeviation="9"/>
<feComposite in2="SourceAlpha" operator="in" result="effect1_backgroundBlur_3501_10"/>
<feColorMatrix in="SourceAlpha" type="matrix" values="0 0 0 0 0 0 0 0 0 0 0 0 0 0 0 0 0 0 127 0" result="hardAlpha"/>
<feOffset dx="-2"/>
<feGaussianBlur stdDeviation="2.5"/>
<feComposite in2="hardAlpha" operator="out"/>
<feColorMatrix type="matrix" values="0 0 0 0 0.996078 0 0 0 0 0.0823529 0 0 0 0 0.235294 0 0 0 0.52 0"/>
<feBlend mode="normal" in2="effect1_backgroundBlur_3501_10" result="effect2_dropShadow_3501_10"/>
<feColorMatrix in="SourceAlpha" type="matrix" values="0 0 0 0 0 0 0 0 0 0 0 0 0 0 0 0 0 0 127 0" result="hardAlpha"/>
<feOffset dx="2"/>
<feGaussianBlur stdDeviation="2.5"/>
<feComposite in2="hardAlpha" operator="out"/>
<feColorMatrix type="matrix" values="0 0 0 0 0.996078 0 0 0 0 0.0823529 0 0 0 0 0.235294 0 0 0 0.52 0"/>
<feBlend mode="normal" in2="effect2_dropShadow_3501_10" result="effect3_dropShadow_3501_10"/>
<feBlend mode="normal" in="SourceGraphic" in2="effect3_dropShadow_3501_10" result="shape"/>
</filter>
<linearGradient id="paint0_linear_3501_10" x1="53.4882" y1="32.7706" x2="207.404" y2="198.456" gradientUnits="userSpaceOnUse">
<stop stop-color="#FF002A"/>
<stop offset="1" stop-color="#750013"/>
</linearGradient>
<clipPath id="clip0_3501_10">
<rect width="217" height="245" fill="white"/>
</clipPath>
</defs>
</svg>
