<svg width="217" height="245" viewBox="0 0 217 245" fill="none" xmlns="http://www.w3.org/2000/svg">
<g clip-path="url(#clip0_3501_14)">
<g filter="url(#filter0_bdd_3501_14)">
<path d="M112.057 0L0 66.9784V185.072L112.057 245L217 185.072V66.9784L112.057 0Z" fill="white" fill-opacity="0.1" shape-rendering="crispEdges"/>
<path d="M112.057 0L0 66.9784V185.072L112.057 245L217 185.072V66.9784L112.057 0Z" stroke="url(#paint0_linear_3501_14)" stroke-width="6" shape-rendering="crispEdges"/>
</g>
<path d="M52.6997 141V108.6H60.7397C62.6864 108.6 64.233 108.96 65.3797 109.68C66.553 110.373 67.4064 111.387 67.9397 112.72C68.473 114.053 68.7397 115.667 68.7397 117.56C68.7397 119.267 68.433 120.747 67.8197 122C67.233 123.253 66.353 124.227 65.1797 124.92C64.0064 125.587 62.5397 125.92 60.7797 125.92H57.2197V141H52.6997ZM57.2197 122.68H59.2997C60.6064 122.68 61.633 122.533 62.3797 122.24C63.1264 121.947 63.6597 121.44 63.9797 120.72C64.2997 119.973 64.4597 118.933 64.4597 117.6C64.4597 116.053 64.3397 114.867 64.0997 114.04C63.8864 113.213 63.4197 112.64 62.6997 112.32C61.9797 112 60.8597 111.84 59.3397 111.84H57.2197V122.68ZM71.6784 141V108.6H75.9584V120.28C76.7318 119.533 77.5984 118.893 78.5584 118.36C79.5184 117.827 80.5851 117.56 81.7584 117.56C82.6651 117.56 83.3584 117.8 83.8384 118.28C84.3451 118.76 84.6918 119.36 84.8784 120.08C85.0918 120.8 85.1984 121.533 85.1984 122.28V141H80.9184V123.52C80.9184 122.693 80.7984 122.053 80.5584 121.6C80.3184 121.147 79.8251 120.92 79.0784 120.92C78.5718 120.92 78.0384 121.067 77.4784 121.36C76.9451 121.653 76.4384 122.013 75.9584 122.44V141H71.6784ZM92.8509 141.32C91.9443 141.32 91.1443 141.067 90.4509 140.56C89.7576 140.027 89.2109 139.36 88.8109 138.56C88.4109 137.733 88.2109 136.867 88.2109 135.96C88.2109 134.52 88.4509 133.307 88.9309 132.32C89.4109 131.333 90.0643 130.507 90.8909 129.84C91.7443 129.147 92.7176 128.547 93.8109 128.04C94.9309 127.533 96.1043 127.04 97.3309 126.56V124.92C97.3309 123.987 97.2776 123.213 97.1709 122.6C97.0643 121.987 96.8376 121.533 96.4909 121.24C96.1709 120.92 95.6776 120.76 95.0109 120.76C94.4243 120.76 93.9443 120.893 93.5709 121.16C93.2243 121.427 92.9709 121.813 92.8109 122.32C92.6509 122.8 92.5709 123.373 92.5709 124.04V125.2L88.3309 125.04C88.3843 122.48 88.9709 120.6 90.0909 119.4C91.2109 118.173 92.9443 117.56 95.2909 117.56C97.5843 117.56 99.2109 118.187 100.171 119.44C101.131 120.693 101.611 122.507 101.611 124.88V135.44C101.611 136.16 101.624 136.853 101.651 137.52C101.704 138.187 101.758 138.813 101.811 139.4C101.891 139.96 101.958 140.493 102.011 141H98.0909C98.0109 140.573 97.9043 140.04 97.7709 139.4C97.6643 138.733 97.5843 138.133 97.5309 137.6C97.2643 138.507 96.7443 139.36 95.9709 140.16C95.2243 140.933 94.1843 141.32 92.8509 141.32ZM94.5309 137.64C94.9576 137.64 95.3576 137.52 95.7309 137.28C96.1043 137.04 96.4376 136.773 96.7309 136.48C97.0243 136.16 97.2243 135.907 97.3309 135.72V129.16C96.6643 129.533 96.0376 129.907 95.4509 130.28C94.8643 130.653 94.3443 131.053 93.8909 131.48C93.4643 131.88 93.1176 132.347 92.8509 132.88C92.6109 133.387 92.4909 133.973 92.4909 134.64C92.4909 135.573 92.6643 136.307 93.0109 136.84C93.3576 137.373 93.8643 137.64 94.5309 137.64ZM111.098 141.32C109.205 141.32 107.685 140.733 106.538 139.56C105.391 138.36 104.738 136.787 104.578 134.84L108.138 133.76C108.351 135.227 108.711 136.333 109.218 137.08C109.725 137.8 110.471 138.16 111.458 138.16C112.231 138.16 112.818 137.947 113.218 137.52C113.618 137.067 113.818 136.467 113.818 135.72C113.818 135.053 113.671 134.453 113.378 133.92C113.085 133.387 112.605 132.84 111.938 132.28L107.978 128.88C107.178 128.187 106.498 127.413 105.938 126.56C105.405 125.707 105.138 124.6 105.138 123.24C105.138 122.013 105.378 120.987 105.858 120.16C106.365 119.307 107.058 118.667 107.938 118.24C108.845 117.787 109.898 117.56 111.098 117.56C113.018 117.56 114.485 118.16 115.498 119.36C116.511 120.533 117.098 121.96 117.258 123.64L114.218 124.72C114.111 123.92 113.951 123.227 113.738 122.64C113.525 122.027 113.218 121.56 112.818 121.24C112.418 120.893 111.898 120.72 111.258 120.72C110.565 120.72 110.005 120.96 109.578 121.44C109.178 121.893 108.978 122.44 108.978 123.08C108.978 123.48 109.058 123.88 109.218 124.28C109.405 124.653 109.711 125.027 110.138 125.4L114.218 129.16C114.778 129.667 115.298 130.213 115.778 130.8C116.285 131.387 116.698 132.053 117.018 132.8C117.338 133.547 117.498 134.413 117.498 135.4C117.498 136.707 117.231 137.8 116.698 138.68C116.165 139.56 115.418 140.227 114.458 140.68C113.498 141.107 112.378 141.32 111.098 141.32ZM127.099 141.32C125.286 141.32 123.886 140.973 122.899 140.28C121.912 139.56 121.219 138.52 120.819 137.16C120.446 135.773 120.259 134.08 120.259 132.08V126.8C120.259 124.747 120.459 123.04 120.859 121.68C121.259 120.32 121.952 119.293 122.939 118.6C123.952 117.907 125.339 117.56 127.099 117.56C129.046 117.56 130.472 117.96 131.379 118.76C132.312 119.56 132.926 120.72 133.219 122.24C133.512 123.733 133.659 125.533 133.659 127.64V129.52H124.539V134.16C124.539 135.093 124.619 135.853 124.779 136.44C124.966 137.027 125.246 137.467 125.619 137.76C126.019 138.027 126.526 138.16 127.139 138.16C127.779 138.16 128.259 138.013 128.579 137.72C128.926 137.4 129.152 136.96 129.259 136.4C129.392 135.813 129.459 135.133 129.459 134.36V132.96H133.619V133.84C133.619 136.16 133.126 137.987 132.139 139.32C131.152 140.653 129.472 141.32 127.099 141.32ZM124.539 127.2H129.459V125.12C129.459 124.16 129.406 123.36 129.299 122.72C129.192 122.053 128.966 121.56 128.619 121.24C128.299 120.893 127.779 120.72 127.059 120.72C126.366 120.72 125.832 120.88 125.459 121.2C125.112 121.52 124.872 122.067 124.739 122.84C124.606 123.587 124.539 124.627 124.539 125.96V127.2ZM136.975 131V127.76H145.895V131H136.975ZM158.484 141V132.32H149.084V127.84L157.524 108.6H162.564V128.52H166.204V132.32H162.564V141H158.484ZM153.204 128.52H158.484V113.8L153.204 128.52Z" fill="white"/>
</g>
<defs>
<filter id="filter0_bdd_3501_14" x="-21" y="-21.5259" width="259" height="287.953" filterUnits="userSpaceOnUse" color-interpolation-filters="sRGB">
<feFlood flood-opacity="0" result="BackgroundImageFix"/>
<feGaussianBlur in="BackgroundImageFix" stdDeviation="9"/>
<feComposite in2="SourceAlpha" operator="in" result="effect1_backgroundBlur_3501_14"/>
<feColorMatrix in="SourceAlpha" type="matrix" values="0 0 0 0 0 0 0 0 0 0 0 0 0 0 0 0 0 0 127 0" result="hardAlpha"/>
<feOffset dx="-2"/>
<feGaussianBlur stdDeviation="2.5"/>
<feComposite in2="hardAlpha" operator="out"/>
<feColorMatrix type="matrix" values="0 0 0 0 0.996078 0 0 0 0 0.0823529 0 0 0 0 0.235294 0 0 0 0.52 0"/>
<feBlend mode="normal" in2="effect1_backgroundBlur_3501_14" result="effect2_dropShadow_3501_14"/>
<feColorMatrix in="SourceAlpha" type="matrix" values="0 0 0 0 0 0 0 0 0 0 0 0 0 0 0 0 0 0 127 0" result="hardAlpha"/>
<feOffset dx="2"/>
<feGaussianBlur stdDeviation="2.5"/>
<feComposite in2="hardAlpha" operator="out"/>
<feColorMatrix type="matrix" values="0 0 0 0 0.996078 0 0 0 0 0.0823529 0 0 0 0 0.235294 0 0 0 0.52 0"/>
<feBlend mode="normal" in2="effect2_dropShadow_3501_14" result="effect3_dropShadow_3501_14"/>
<feBlend mode="normal" in="SourceGraphic" in2="effect3_dropShadow_3501_14" result="shape"/>
</filter>
<linearGradient id="paint0_linear_3501_14" x1="53.4882" y1="32.7706" x2="207.404" y2="198.456" gradientUnits="userSpaceOnUse">
<stop stop-color="#FF002A"/>
<stop offset="1" stop-color="#750013"/>
</linearGradient>
<clipPath id="clip0_3501_14">
<rect width="217" height="245" fill="white"/>
</clipPath>
</defs>
</svg>
