<svg width="217" height="245" viewBox="0 0 217 245" fill="none" xmlns="http://www.w3.org/2000/svg">
<g clip-path="url(#clip0_3501_18)">
<g filter="url(#filter0_bdd_3501_18)">
<path d="M112.057 0L0 66.9784V185.072L112.057 245L217 185.072V66.9784L112.057 0Z" fill="white" fill-opacity="0.1" shape-rendering="crispEdges"/>
<path d="M112.057 0L0 66.9784V185.072L112.057 245L217 185.072V66.9784L112.057 0Z" stroke="url(#paint0_linear_3501_18)" stroke-width="6" shape-rendering="crispEdges"/>
</g>
<path d="M52.8559 141V108.6H60.8959C62.8426 108.6 64.3893 108.96 65.5359 109.68C66.7093 110.373 67.5626 111.387 68.0959 112.72C68.6293 114.053 68.8959 115.667 68.8959 117.56C68.8959 119.267 68.5893 120.747 67.9759 122C67.3893 123.253 66.5093 124.227 65.3359 124.92C64.1626 125.587 62.6959 125.92 60.9359 125.92H57.3759V141H52.8559ZM57.3759 122.68H59.4559C60.7626 122.68 61.7893 122.533 62.5359 122.24C63.2826 121.947 63.8159 121.44 64.1359 120.72C64.4559 119.973 64.6159 118.933 64.6159 117.6C64.6159 116.053 64.4959 114.867 64.2559 114.04C64.0426 113.213 63.5759 112.64 62.8559 112.32C62.1359 112 61.0159 111.84 59.4959 111.84H57.3759V122.68ZM71.8347 141V108.6H76.1147V120.28C76.888 119.533 77.7547 118.893 78.7147 118.36C79.6747 117.827 80.7414 117.56 81.9147 117.56C82.8214 117.56 83.5147 117.8 83.9947 118.28C84.5014 118.76 84.848 119.36 85.0347 120.08C85.248 120.8 85.3547 121.533 85.3547 122.28V141H81.0747V123.52C81.0747 122.693 80.9547 122.053 80.7147 121.6C80.4747 121.147 79.9814 120.92 79.2347 120.92C78.728 120.92 78.1947 121.067 77.6347 121.36C77.1014 121.653 76.5947 122.013 76.1147 122.44V141H71.8347ZM93.0072 141.32C92.1005 141.32 91.3005 141.067 90.6072 140.56C89.9139 140.027 89.3672 139.36 88.9672 138.56C88.5672 137.733 88.3672 136.867 88.3672 135.96C88.3672 134.52 88.6072 133.307 89.0872 132.32C89.5672 131.333 90.2205 130.507 91.0472 129.84C91.9005 129.147 92.8739 128.547 93.9672 128.04C95.0872 127.533 96.2605 127.04 97.4872 126.56V124.92C97.4872 123.987 97.4339 123.213 97.3272 122.6C97.2205 121.987 96.9939 121.533 96.6472 121.24C96.3272 120.92 95.8339 120.76 95.1672 120.76C94.5805 120.76 94.1005 120.893 93.7272 121.16C93.3805 121.427 93.1272 121.813 92.9672 122.32C92.8072 122.8 92.7272 123.373 92.7272 124.04V125.2L88.4872 125.04C88.5405 122.48 89.1272 120.6 90.2472 119.4C91.3672 118.173 93.1005 117.56 95.4472 117.56C97.7405 117.56 99.3672 118.187 100.327 119.44C101.287 120.693 101.767 122.507 101.767 124.88V135.44C101.767 136.16 101.781 136.853 101.807 137.52C101.861 138.187 101.914 138.813 101.967 139.4C102.047 139.96 102.114 140.493 102.167 141H98.2472C98.1672 140.573 98.0605 140.04 97.9272 139.4C97.8205 138.733 97.7405 138.133 97.6872 137.6C97.4205 138.507 96.9005 139.36 96.1272 140.16C95.3805 140.933 94.3405 141.32 93.0072 141.32ZM94.6872 137.64C95.1139 137.64 95.5139 137.52 95.8872 137.28C96.2605 137.04 96.5939 136.773 96.8872 136.48C97.1805 136.16 97.3805 135.907 97.4872 135.72V129.16C96.8205 129.533 96.1939 129.907 95.6072 130.28C95.0205 130.653 94.5005 131.053 94.0472 131.48C93.6205 131.88 93.2739 132.347 93.0072 132.88C92.7672 133.387 92.6472 133.973 92.6472 134.64C92.6472 135.573 92.8205 136.307 93.1672 136.84C93.5139 137.373 94.0205 137.64 94.6872 137.64ZM111.254 141.32C109.361 141.32 107.841 140.733 106.694 139.56C105.548 138.36 104.894 136.787 104.734 134.84L108.294 133.76C108.508 135.227 108.868 136.333 109.374 137.08C109.881 137.8 110.628 138.16 111.614 138.16C112.388 138.16 112.974 137.947 113.374 137.52C113.774 137.067 113.974 136.467 113.974 135.72C113.974 135.053 113.828 134.453 113.534 133.92C113.241 133.387 112.761 132.84 112.094 132.28L108.134 128.88C107.334 128.187 106.654 127.413 106.094 126.56C105.561 125.707 105.294 124.6 105.294 123.24C105.294 122.013 105.534 120.987 106.014 120.16C106.521 119.307 107.214 118.667 108.094 118.24C109.001 117.787 110.054 117.56 111.254 117.56C113.174 117.56 114.641 118.16 115.654 119.36C116.668 120.533 117.254 121.96 117.414 123.64L114.374 124.72C114.268 123.92 114.108 123.227 113.894 122.64C113.681 122.027 113.374 121.56 112.974 121.24C112.574 120.893 112.054 120.72 111.414 120.72C110.721 120.72 110.161 120.96 109.734 121.44C109.334 121.893 109.134 122.44 109.134 123.08C109.134 123.48 109.214 123.88 109.374 124.28C109.561 124.653 109.868 125.027 110.294 125.4L114.374 129.16C114.934 129.667 115.454 130.213 115.934 130.8C116.441 131.387 116.854 132.053 117.174 132.8C117.494 133.547 117.654 134.413 117.654 135.4C117.654 136.707 117.388 137.8 116.854 138.68C116.321 139.56 115.574 140.227 114.614 140.68C113.654 141.107 112.534 141.32 111.254 141.32ZM127.255 141.32C125.442 141.32 124.042 140.973 123.055 140.28C122.069 139.56 121.375 138.52 120.975 137.16C120.602 135.773 120.415 134.08 120.415 132.08V126.8C120.415 124.747 120.615 123.04 121.015 121.68C121.415 120.32 122.109 119.293 123.095 118.6C124.109 117.907 125.495 117.56 127.255 117.56C129.202 117.56 130.629 117.96 131.535 118.76C132.469 119.56 133.082 120.72 133.375 122.24C133.669 123.733 133.815 125.533 133.815 127.64V129.52H124.695V134.16C124.695 135.093 124.775 135.853 124.935 136.44C125.122 137.027 125.402 137.467 125.775 137.76C126.175 138.027 126.682 138.16 127.295 138.16C127.935 138.16 128.415 138.013 128.735 137.72C129.082 137.4 129.309 136.96 129.415 136.4C129.549 135.813 129.615 135.133 129.615 134.36V132.96H133.775V133.84C133.775 136.16 133.282 137.987 132.295 139.32C131.309 140.653 129.629 141.32 127.255 141.32ZM124.695 127.2H129.615V125.12C129.615 124.16 129.562 123.36 129.455 122.72C129.349 122.053 129.122 121.56 128.775 121.24C128.455 120.893 127.935 120.72 127.215 120.72C126.522 120.72 125.989 120.88 125.615 121.2C125.269 121.52 125.029 122.067 124.895 122.84C124.762 123.587 124.695 124.627 124.695 125.96V127.2ZM137.131 131V127.76H146.051V131H137.131ZM157.361 141.32C155.414 141.32 153.867 140.947 152.721 140.2C151.574 139.453 150.747 138.373 150.241 136.96C149.761 135.547 149.521 133.867 149.521 131.92H153.801C153.801 132.88 153.881 133.827 154.041 134.76C154.201 135.667 154.534 136.427 155.041 137.04C155.574 137.627 156.374 137.92 157.441 137.92C158.614 137.92 159.454 137.587 159.961 136.92C160.467 136.227 160.787 135.307 160.921 134.16C161.054 132.987 161.121 131.667 161.121 130.2C161.121 128.733 161.041 127.493 160.881 126.48C160.721 125.44 160.387 124.653 159.881 124.12C159.374 123.56 158.574 123.28 157.481 123.28C156.601 123.28 155.854 123.56 155.241 124.12C154.627 124.653 154.174 125.267 153.881 125.96H150.241V108.6H164.201V112.88H154.121L153.841 121.84C154.374 121.28 155.027 120.84 155.801 120.52C156.601 120.2 157.507 120.04 158.521 120.04C160.281 120.04 161.654 120.453 162.641 121.28C163.654 122.107 164.361 123.24 164.761 124.68C165.187 126.12 165.401 127.773 165.401 129.64C165.401 131.293 165.281 132.84 165.041 134.28C164.801 135.693 164.374 136.933 163.761 138C163.174 139.04 162.361 139.853 161.321 140.44C160.281 141.027 158.961 141.32 157.361 141.32Z" fill="white"/>
</g>
<defs>
<filter id="filter0_bdd_3501_18" x="-21" y="-21.5259" width="259" height="287.953" filterUnits="userSpaceOnUse" color-interpolation-filters="sRGB">
<feFlood flood-opacity="0" result="BackgroundImageFix"/>
<feGaussianBlur in="BackgroundImageFix" stdDeviation="9"/>
<feComposite in2="SourceAlpha" operator="in" result="effect1_backgroundBlur_3501_18"/>
<feColorMatrix in="SourceAlpha" type="matrix" values="0 0 0 0 0 0 0 0 0 0 0 0 0 0 0 0 0 0 127 0" result="hardAlpha"/>
<feOffset dx="-2"/>
<feGaussianBlur stdDeviation="2.5"/>
<feComposite in2="hardAlpha" operator="out"/>
<feColorMatrix type="matrix" values="0 0 0 0 0.996078 0 0 0 0 0.0823529 0 0 0 0 0.235294 0 0 0 0.52 0"/>
<feBlend mode="normal" in2="effect1_backgroundBlur_3501_18" result="effect2_dropShadow_3501_18"/>
<feColorMatrix in="SourceAlpha" type="matrix" values="0 0 0 0 0 0 0 0 0 0 0 0 0 0 0 0 0 0 127 0" result="hardAlpha"/>
<feOffset dx="2"/>
<feGaussianBlur stdDeviation="2.5"/>
<feComposite in2="hardAlpha" operator="out"/>
<feColorMatrix type="matrix" values="0 0 0 0 0.996078 0 0 0 0 0.0823529 0 0 0 0 0.235294 0 0 0 0.52 0"/>
<feBlend mode="normal" in2="effect2_dropShadow_3501_18" result="effect3_dropShadow_3501_18"/>
<feBlend mode="normal" in="SourceGraphic" in2="effect3_dropShadow_3501_18" result="shape"/>
</filter>
<linearGradient id="paint0_linear_3501_18" x1="53.4882" y1="32.7706" x2="207.404" y2="198.456" gradientUnits="userSpaceOnUse">
<stop stop-color="#FF002A"/>
<stop offset="1" stop-color="#750013"/>
</linearGradient>
<clipPath id="clip0_3501_18">
<rect width="217" height="245" fill="white"/>
</clipPath>
</defs>
</svg>
